<svg width="35" height="35" viewBox="0 0 35 35" fill="none" xmlns="http://www.w3.org/2000/svg">
<path d="M6.33333 32C5.41667 32 4.63167 31.6739 3.97833 31.0217C3.32611 30.3683 3 29.5833 3 28.6667V12C3 11.0833 3.32611 10.2983 3.97833 9.645C4.63167 8.99278 5.41667 8.66667 6.33333 8.66667H9.66667V5.33333C9.66667 4.41667 9.99333 3.63167 10.6467 2.97833C11.2989 2.32611 12.0833 2 13 2H23C23.9167 2 24.7017 2.32611 25.355 2.97833C26.0072 3.63167 26.3333 4.41667 26.3333 5.33333V15.3333H29.6667C30.5833 15.3333 31.3683 15.6594 32.0217 16.3117C32.6739 16.965 33 17.75 33 18.6667V28.6667C33 29.5833 32.6739 30.3683 32.0217 31.0217C31.3683 31.6739 30.5833 32 29.6667 32H19.6667V25.3333H16.3333V32H6.33333ZM6.33333 28.6667H9.66667V25.3333H6.33333V28.6667ZM6.33333 22H9.66667V18.6667H6.33333V22ZM6.33333 15.3333H9.66667V12H6.33333V15.3333ZM13 22H16.3333V18.6667H13V22ZM13 15.3333H16.3333V12H13V15.3333ZM13 8.66667H16.3333V5.33333H13V8.66667ZM19.6667 22H23V18.6667H19.6667V22ZM19.6667 15.3333H23V12H19.6667V15.3333ZM19.6667 8.66667H23V5.33333H19.6667V8.66667ZM26.3333 28.6667H29.6667V25.3333H26.3333V28.6667ZM26.3333 22H29.6667V18.6667H26.3333V22Z" fill="#1D1E44"/>
</svg>
