<svg width="30" height="30" viewBox="0 0 30 30" fill="none" xmlns="http://www.w3.org/2000/svg">
<path d="M0.507455 24.4245C0.169152 24.0862 0 23.6959 0 23.2535C0 22.8111 0.169152 22.4207 0.507455 22.0824L9.95394 12.636C10.2662 12.3237 10.6305 12.1675 11.0469 12.1675C11.4633 12.1675 11.8276 12.3237 12.1399 12.636L17.2925 17.7886L27.2855 6.50746C27.5718 6.16915 27.9428 6 28.3988 6C28.8537 6 29.2373 6.15614 29.5495 6.46842C29.8358 6.75468 29.9857 7.09923 29.9992 7.50207C30.0117 7.90595 29.8748 8.26403 29.5886 8.57631L18.3855 21.2237C18.0993 21.562 17.7287 21.7379 17.2738 21.7514C16.8179 21.7639 16.4338 21.614 16.1215 21.3017L11.0469 16.2272L2.84956 24.4245C2.51125 24.7628 2.1209 24.932 1.67851 24.932C1.23611 24.932 0.845759 24.7628 0.507455 24.4245Z" fill="#70A346"/>
</svg>
