<svg width="32" height="35" viewBox="0 0 32 35" fill="none" xmlns="http://www.w3.org/2000/svg">
<path d="M8.75 21C8.25417 21 7.83825 20.832 7.50225 20.496C7.16742 20.1612 7 19.7458 7 19.25C7 18.7542 7.16742 18.3382 7.50225 18.0022C7.83825 17.6674 8.25417 17.5 8.75 17.5C9.24583 17.5 9.66175 17.6674 9.99775 18.0022C10.3326 18.3382 10.5 18.7542 10.5 19.25C10.5 19.7458 10.3326 20.1612 9.99775 20.496C9.66175 20.832 9.24583 21 8.75 21ZM15.75 21C15.2542 21 14.8388 20.832 14.504 20.496C14.168 20.1612 14 19.7458 14 19.25C14 18.7542 14.168 18.3382 14.504 18.0022C14.8388 17.6674 15.2542 17.5 15.75 17.5C16.2458 17.5 16.6618 17.6674 16.9978 18.0022C17.3326 18.3382 17.5 18.7542 17.5 19.25C17.5 19.7458 17.3326 20.1612 16.9978 20.496C16.6618 20.832 16.2458 21 15.75 21ZM22.75 21C22.2542 21 21.8388 20.832 21.504 20.496C21.168 20.1612 21 19.7458 21 19.25C21 18.7542 21.168 18.3382 21.504 18.0022C21.8388 17.6674 22.2542 17.5 22.75 17.5C23.2458 17.5 23.6612 17.6674 23.996 18.0022C24.332 18.3382 24.5 18.7542 24.5 19.25C24.5 19.7458 24.332 20.1612 23.996 20.496C23.6612 20.832 23.2458 21 22.75 21ZM3.5 35C2.5375 35 1.71325 34.6576 1.02725 33.9728C0.342416 33.2868 0 32.4625 0 31.5V7C0 6.0375 0.342416 5.21383 1.02725 4.529C1.71325 3.843 2.5375 3.5 3.5 3.5H5.25V1.70625C5.25 1.21042 5.41742 0.802083 5.75225 0.48125C6.08825 0.160417 6.50417 0 7 0C7.49583 0 7.91175 0.167417 8.24775 0.50225C8.58258 0.83825 8.75 1.25417 8.75 1.75V3.5H22.75V1.70625C22.75 1.21042 22.918 0.802083 23.254 0.48125C23.5888 0.160417 24.0042 0 24.5 0C24.9958 0 25.4112 0.167417 25.746 0.50225C26.082 0.83825 26.25 1.25417 26.25 1.75V3.5H28C28.9625 3.5 29.7868 3.843 30.4727 4.529C31.1576 5.21383 31.5 6.0375 31.5 7V31.5C31.5 32.4625 31.1576 33.2868 30.4727 33.9728C29.7868 34.6576 28.9625 35 28 35H3.5ZM3.5 31.5H28V14H3.5V31.5Z" fill="black"/>
</svg>
